<svg width="22" height="20" viewBox="0 0 22 20" fill="none" xmlns="http://www.w3.org/2000/svg">
<path d="M11.2724 0.784355L13.7441 6.14285C13.9334 6.5534 14.3225 6.83608 14.7715 6.88931L20.6315 7.58411C20.8857 7.61425 20.9878 7.92847 20.7998 8.10228L16.4674 12.1088C16.1354 12.4158 15.9868 12.8732 16.0749 13.3166L17.225 19.1045C17.2749 19.3556 17.0076 19.5498 16.7842 19.4248L11.635 16.5424C11.2405 16.3216 10.7595 16.3216 10.365 16.5424L5.21578 19.4248C4.9924 19.5498 4.72511 19.3556 4.775 19.1045L5.92505 13.3166C6.01317 12.8732 5.86456 12.4158 5.53262 12.1088L1.20016 8.10227C1.01221 7.92847 1.11431 7.61425 1.36853 7.58411L7.22854 6.88931C7.67751 6.83608 8.06658 6.5534 8.25595 6.14285L10.7276 0.784353C10.8348 0.551894 11.1652 0.551892 11.2724 0.784355Z" stroke="#FFC21F"/>
</svg>
