<svg width="21" height="20" viewBox="0 0 21 20" fill="none" xmlns="http://www.w3.org/2000/svg">
<path d="M9.77355 0.57493C10.0595 -0.044967 10.9405 -0.0449655 11.2264 0.574932L13.6981 5.93343C13.8146 6.18607 14.054 6.36003 14.3303 6.39279L20.1903 7.08759C20.8683 7.16796 21.1405 8.00587 20.6393 8.46937L16.3069 12.4759C16.1026 12.6648 16.0111 12.9463 16.0654 13.2192L17.2154 19.0071C17.3485 19.6766 16.6357 20.1945 16.04 19.8611L10.8908 16.9787C10.648 16.8428 10.352 16.8428 10.1092 16.9787L4.96 19.8611C4.36431 20.1945 3.65155 19.6766 3.78459 19.0071L4.93464 13.2192C4.98887 12.9463 4.89741 12.6648 4.69314 12.4759L0.360686 8.46937C-0.140514 8.00587 0.131741 7.16796 0.809655 7.08759L6.66967 6.39279C6.94596 6.36003 7.18538 6.18607 7.30192 5.93343L9.77355 0.57493Z" fill="#FFC21F"/>
</svg>
